# xmcd CD database file
#
# Track frame offsets:
#	150
#	18226
#	31707
#	49247
#	65383
#	80817
#	96655
#	110370
#	122875
#	137158
#	154855
#	170083
#
# Disc length: 2442 seconds
#
# Revision: 0
# Processed by: cddbd v1.5.1PL2 Copyright (c) Steve Scherf et al.
# Submitted via: CDex 1.51
#
DISCID=a509880c
DTITLE=Shake Keane - The Big Fat Horn Of
DYEAR=1900
DGENRE=Jazz
TTITLE0=Baby It's Cold Outside
TTITLE1=Gigi
TTITLE2=Bachianas Brasileiras No. 5
TTITLE3=Makin' Whoppe
TTITLE4=I Have A Dream
TTITLE5=Estrado Do Sol
TTITLE6=Wives And Lovers
TTITLE7=Small World
TTITLE8=Meditacao (Meditation)
TTITLE9=Lost In The Stars
TTITLE10=Every Time We Say Goodbye
TTITLE11=Like A Woman
EXTD=
EXTT0=
EXTT1=
EXTT2=
EXTT3=
EXTT4=
EXTT5=
EXTT6=
EXTT7=
EXTT8=
EXTT9=
EXTT10=
EXTT11=
PLAYORDER=
